<?xml version="1.0" encoding="UTF-8"?>
<svg xmlns="http://www.w3.org/2000/svg" version="1.1" width="300" height="300" viewBox="0 0 300 300"><rect x="0" y="0" width="300" height="300" fill="#ffffff"/><g transform="scale(14.286)"><g transform="translate(0,0)"><path fill-rule="evenodd" d="M8 0L8 1L9 1L9 2L8 2L8 5L11 5L11 4L12 4L12 3L13 3L13 0L12 0L12 3L11 3L11 2L10 2L10 0ZM9 2L9 4L11 4L11 3L10 3L10 2ZM8 6L8 7L9 7L9 8L8 8L8 11L7 11L7 10L6 10L6 9L7 9L7 8L6 8L6 9L4 9L4 8L0 8L0 9L3 9L3 10L0 10L0 11L2 11L2 12L0 12L0 13L2 13L2 12L3 12L3 13L5 13L5 11L7 11L7 12L6 12L6 13L7 13L7 12L8 12L8 14L9 14L9 15L10 15L10 14L12 14L12 12L14 12L14 11L15 11L15 10L16 10L16 9L18 9L18 10L17 10L17 11L16 11L16 12L15 12L15 13L14 13L14 14L13 14L13 15L14 15L14 14L15 14L15 13L16 13L16 12L17 12L17 13L18 13L18 14L16 14L16 15L15 15L15 16L14 16L14 17L13 17L13 18L12 18L12 19L11 19L11 20L12 20L12 19L13 19L13 18L14 18L14 17L15 17L15 19L14 19L14 20L13 20L13 21L14 21L14 20L15 20L15 19L16 19L16 21L17 21L17 20L19 20L19 21L20 21L20 20L19 20L19 18L20 18L20 17L18 17L18 19L17 19L17 18L16 18L16 17L17 17L17 16L18 16L18 14L19 14L19 15L21 15L21 13L20 13L20 12L19 12L19 11L18 11L18 10L19 10L19 8L16 8L16 9L15 9L15 10L14 10L14 11L13 11L13 9L14 9L14 8L13 8L13 9L12 9L12 12L11 12L11 13L10 13L10 14L9 14L9 12L8 12L8 11L10 11L10 9L11 9L11 6L10 6L10 7L9 7L9 6ZM12 6L12 7L13 7L13 6ZM9 8L9 9L10 9L10 8ZM20 8L20 10L21 10L21 8ZM3 11L3 12L4 12L4 11ZM17 11L17 12L18 12L18 13L19 13L19 14L20 14L20 13L19 13L19 12L18 12L18 11ZM16 15L16 16L15 16L15 17L16 17L16 16L17 16L17 15ZM11 16L11 17L8 17L8 21L10 21L10 19L9 19L9 18L11 18L11 17L12 17L12 16ZM0 0L0 7L7 7L7 0ZM1 1L1 6L6 6L6 1ZM2 2L2 5L5 5L5 2ZM14 0L14 7L21 7L21 0ZM15 1L15 6L20 6L20 1ZM16 2L16 5L19 5L19 2ZM0 14L0 21L7 21L7 14ZM1 15L1 20L6 20L6 15ZM2 16L2 19L5 19L5 16Z" fill="#000000"/></g></g></svg>
